<svg width="144" height="139" viewBox="0 0 144 139" fill="none" xmlns="http://www.w3.org/2000/svg">
<path fill-rule="evenodd" clip-rule="evenodd" d="M94.4387 41.1199C89.6113 62.3601 75.0743 100.289 55.5443 82.0831C29.8359 59.6919 13.0413 64.0472 4.96523 72.8234C4.45244 73.3806 3.89974 74.1046 3.37144 74.9954C2.7229 76.0889 2.11112 77.4338 1.65508 79.0299C1.73855 78.9189 1.86915 78.7015 2.04309 78.412C2.77218 77.1985 4.2626 74.7179 6.23437 73.4923C6.38098 73.4618 6.53614 73.4181 6.69109 73.3503L6.70898 73.3426C6.80019 73.3033 6.99155 73.2207 7.14171 73.0612L7.15445 73.0473C7.16061 73.0404 7.16646 73.0337 7.17201 73.027C8.02456 72.7112 8.94854 72.6626 9.92554 73.047C11.4913 74.1641 12.4455 76.4175 11.5855 79.8574C9.10292 88.5466 9.7539 92.5652 10.4435 95.7375C11.2711 92.2894 20.2747 78.2024 28.6494 79.1867C44.6871 82.3401 40.5494 103.029 31.0327 108.821C19.8609 113.373 2.48261 110.476 0 90.6154C0.413769 112.131 16.65 116.564 26.5805 118.909C35.1704 134.061 71.9958 155.577 101.373 118.338C121.963 107.009 135.953 89.8068 139.953 80.428C144.255 70.3408 147.302 52.9624 136.229 62.6359C136.229 47.0782 134.85 40.982 134.16 39.8786C133.195 36.1547 129.609 31.6032 122.989 43.1888C122.989 24.1554 89.0596 -4.39467 92.7836 0.570563C95.7627 4.54275 98.3299 23.9986 94.4387 41.1199ZM37.653 1.24131C34.3429 14.4819 32.1085 47.0869 49.6523 71.5821C29.4604 55.0313 11.1718 60.8241 4.55148 65.7893C1.37925 58.3414 -3.06187 44.5216 4.55148 48.8248C4.55148 22.0125 11.1718 28.2742 14.4819 34.7566C17.1025 25.102 25.4055 4.88247 37.653 1.24131ZM26.0675 89.3741C28.3526 89.3741 30.2051 87.8921 30.2051 86.064C30.2051 84.2358 28.3526 82.7538 26.0675 82.7538C23.7823 82.7538 21.9298 84.2358 21.9298 86.064C21.9298 87.8921 23.7823 89.3741 26.0675 89.3741ZM8.65211 82.0759C7.46469 82.7614 5.78756 82.0796 4.90613 80.5529C4.0247 79.0262 4.27276 77.2328 5.46017 76.5473C6.64759 75.8617 8.32472 76.5436 9.20615 78.0703C10.0876 79.597 9.83952 81.3903 8.65211 82.0759ZM64.548 18.2058C64.9618 22.6194 68.2719 31.943 76.5473 33.9291C68.2719 35.9152 64.9618 45.2388 64.548 49.6523C64.1342 45.2388 60.4103 35.9152 52.1349 33.9291C60.4103 31.943 64.1342 22.6194 64.548 18.2058Z" fill="#008000"/>
</svg>
