<svg width="300" height="300" viewBox="0 0 300 300" fill="none" xmlns="http://www.w3.org/2000/svg">
<g clip-path="url(#clip0_7_7)">
<rect width="300" height="300" rx="30" fill="white"/>
<path d="M0 30C0 13.4315 13.4315 0 30 0H270C286.569 0 300 13.4315 300 30V300H0V30Z" fill="#BFECFF"/>
<path d="M0 110C0 93.4315 13.4315 80 30 80H270C286.569 80 300 93.4315 300 110V300H0V110Z" fill="#CDC1FF"/>
<path d="M0 200C0 183.431 13.4315 170 30 170H270C286.569 170 300 183.431 300 200V300H0V200Z" fill="#FFF6E3"/>
<rect x="216" y="219" width="61" height="61" rx="30.5" fill="black"/>
<rect x="184" y="186" width="103" height="103" rx="30" fill="black"/>
<path d="M231.718 262.043C230.164 263.563 227.68 263.563 226.125 262.043L211.925 248.158C210.32 246.589 210.32 244.007 211.925 242.438L213.176 241.214C214.731 239.694 217.215 239.694 218.769 241.214L226.125 248.407C227.68 249.927 230.164 249.927 231.718 248.407L258.996 221.734C260.551 220.214 263.035 220.214 264.589 221.734L265.841 222.958C267.445 224.527 267.445 227.109 265.841 228.678L231.718 262.043Z" fill="white"/>
</g>
<defs>
<clipPath id="clip0_7_7">
<rect width="300" height="300" rx="30" fill="white"/>
</clipPath>
</defs>
</svg>
